<?xml version="1.0" encoding="UTF-8" standalone="no"?>
<svg
   xmlns:dc="http://purl.org/dc/elements/1.1/"
   xmlns:cc="http://creativecommons.org/ns#"
   xmlns:rdf="http://www.w3.org/1999/02/22-rdf-syntax-ns#"
   xmlns:svg="http://www.w3.org/2000/svg"
   xmlns="http://www.w3.org/2000/svg"
   xmlns:sodipodi="http://sodipodi.sourceforge.net/DTD/sodipodi-0.dtd"
   xmlns:inkscape="http://www.inkscape.org/namespaces/inkscape"
   width="8.3999996"
   height="8.3999996"
   viewBox="0 0 8.3999996 8.3999996"
   version="1.1"
   id="svg4"
   sodipodi:docname="globe.svg"
   inkscape:version="0.92.5 (2060ec1f9f, 2020-04-08)">
  <metadata
     id="metadata10">
    <rdf:RDF>
      <cc:Work
         rdf:about="">
        <dc:format>image/svg+xml</dc:format>
        <dc:type
           rdf:resource="http://purl.org/dc/dcmitype/StillImage" />
        <dc:title></dc:title>
      </cc:Work>
    </rdf:RDF>
  </metadata>
  <defs
     id="defs8" />
  <sodipodi:namedview
     pagecolor="#ffffff"
     bordercolor="#666666"
     borderopacity="1"
     objecttolerance="10"
     gridtolerance="10"
     guidetolerance="10"
     inkscape:pageopacity="0"
     inkscape:pageshadow="2"
     inkscape:window-width="1920"
     inkscape:window-height="1080"
     id="namedview6"
     showgrid="false"
     fit-margin-top="0"
     fit-margin-left="0"
     fit-margin-right="0"
     fit-margin-bottom="0"
     inkscape:zoom="29.5"
     inkscape:cx="-2.2745763"
     inkscape:cy="4.2"
     inkscape:window-x="0"
     inkscape:window-y="0"
     inkscape:window-maximized="0"
     inkscape:current-layer="svg4" />
  <path
     d="m 4.2,0.2 c -2.21,0 -4,1.79 -4,4 0,2.21 1.79,4 4,4 2.21,0 4,-1.79 4,-4 0,-2.21 -1.79,-4 -4,-4 z m 0,1 C 4.53,1.2 4.84,1.29 5.14,1.39 4.93,1.59 4.69,1.77 4.73,1.95 4.77,2.13 5.42,2.08 5.42,2.45 5.42,2.72 5,2.8 5.29,3.11 5.64,3.46 4.65,4.09 4.63,4.55 4.6,5.38 5.47,5.52 6.16,5.52 c 0.42,0 0.53,0.2 0.5,0.44 C 6.12,6.73 5.2,7.21 4.19,7.21 3.81,7.21 3.46,7.12 3.13,6.99 3.35,6.55 2.85,5.68 2.38,5.4 2.15,5.17 1.66,5.26 1.38,5.15 1.29,4.88 1.2,4.61 1.19,4.31 1.22,4.26 1.27,4.22 1.35,4.22 1.54,4.22 1.8,4.6 1.94,4.56 2.12,4.52 1.2,3.25 1.63,3 1.83,2.88 2.23,3.39 2.1,2.84 1.98,2.33 2.46,2.56 2.76,2.43 3.02,2.32 3.21,2.02 2.89,1.84 2.83,1.81 2.76,1.74 2.67,1.65 3.12,1.38 3.64,1.21 4.2,1.21 Z m 2.31,1.09 c 0.18,0.22 0.32,0.46 0.44,0.72 0,0.01 0,0.02 0,0.03 C 6.91,3.11 6.84,3.15 6.73,3.26 6.45,3.54 6.41,3.05 6.29,2.95 6.16,2.83 5.69,2.97 5.63,2.82 5.56,2.64 6.13,2.4 6.51,2.29 Z"
     id="path2"
     style="fill:#646464;fill-opacity:1;stroke:#c8c8c8;stroke-width:0.40000001;stroke-miterlimit:4;stroke-dasharray:none;stroke-opacity:1"
     inkscape:connector-curvature="0" />
</svg>
