<?xml version="1.0" encoding="UTF-8" standalone="no"?>
<svg
   xmlns:dc="http://purl.org/dc/elements/1.1/"
   xmlns:cc="http://creativecommons.org/ns#"
   xmlns:rdf="http://www.w3.org/1999/02/22-rdf-syntax-ns#"
   xmlns:svg="http://www.w3.org/2000/svg"
   xmlns="http://www.w3.org/2000/svg"
   xmlns:sodipodi="http://sodipodi.sourceforge.net/DTD/sodipodi-0.dtd"
   xmlns:inkscape="http://www.inkscape.org/namespaces/inkscape"
   role="img"
   viewBox="0 0 22.751499 25"
   version="1.1"
   id="svg6"
   sodipodi:docname="hackerrank.svg"
   width="22.751499"
   height="25"
   inkscape:version="0.92.5 (2060ec1f9f, 2020-04-08)">
  <metadata
     id="metadata12">
    <rdf:RDF>
      <cc:Work
         rdf:about="">
        <dc:format>image/svg+xml</dc:format>
        <dc:type
           rdf:resource="http://purl.org/dc/dcmitype/StillImage" />
        <dc:title>HackerRank icon</dc:title>
      </cc:Work>
    </rdf:RDF>
  </metadata>
  <defs
     id="defs10" />
  <sodipodi:namedview
     pagecolor="#ffffff"
     bordercolor="#666666"
     borderopacity="1"
     objecttolerance="10"
     gridtolerance="10"
     guidetolerance="10"
     inkscape:pageopacity="0"
     inkscape:pageshadow="2"
     inkscape:window-width="1920"
     inkscape:window-height="1080"
     id="namedview8"
     showgrid="false"
     fit-margin-top="0"
     fit-margin-left="0"
     fit-margin-right="0"
     fit-margin-bottom="0"
     inkscape:zoom="9.8333333"
     inkscape:cx="-8.0479788"
     inkscape:cy="12.5"
     inkscape:window-x="0"
     inkscape:window-y="0"
     inkscape:window-maximized="0"
     inkscape:current-layer="svg6" />
  <title
     id="title2">HackerRank icon</title>
  <path
     d="m 11.37575,0.5 c 1.285,0 9.75,4.886 10.392,6 0.645,1.115 0.645,10.885 0,12 -0.645,1.115 -9.105,6 -10.392,6 -1.287,0 -9.75,-4.885 -10.395,-6 -0.641,-1.115 -0.641,-10.885 0,-12 0.645,-1.114 9.11,-6 10.395,-6 z m 2.295,6.799 c -0.141,0 -0.258,0.115 -0.258,0.258 v 3.875 h -4.074 V 7.408 h 0.701 c 0.141,0 0.254,-0.115 0.254,-0.258 0,-0.094 -0.049,-0.176 -0.123,-0.221 L 8.59875,5.42 c -0.049,-0.063 -0.141,-0.109 -0.226,-0.109 -0.084,0 -0.16,0.045 -0.207,0.107 l -1.68,1.512 c -0.072,0.045 -0.12,0.126 -0.12,0.218 0,0.143 0.113,0.258 0.255,0.258 h 0.704 l 0.008,10.035 c 0,0.145 0.111,0.258 0.254,0.258 h 1.492 c 0.142,0 0.259,-0.115 0.259,-0.256 v -4.004 h 4.073 v 4.152 h -0.699 c -0.143,0 -0.256,0.115 -0.256,0.258 0,0.092 0.048,0.174 0.119,0.219 l 1.579,1.51 c 0.044,0.061 0.141,0.109 0.225,0.109 0.085,0 0.159,-0.045 0.208,-0.109 l 1.679,-1.51 c 0.072,-0.045 0.12,-0.127 0.12,-0.219 0,-0.143 -0.115,-0.258 -0.255,-0.258 h -0.704 l -0.007,-10.034 c 0,-0.145 -0.114,-0.26 -0.255,-0.26 h -1.494 z"
     id="path4"
     style="fill:#646464;fill-opacity:1;stroke:#c8c8c8;stroke-opacity:1"
     inkscape:connector-curvature="0" />
</svg>
