<?xml version="1.0" encoding="UTF-8" standalone="no"?>
<svg
   xmlns:dc="http://purl.org/dc/elements/1.1/"
   xmlns:cc="http://creativecommons.org/ns#"
   xmlns:rdf="http://www.w3.org/1999/02/22-rdf-syntax-ns#"
   xmlns:svg="http://www.w3.org/2000/svg"
   xmlns="http://www.w3.org/2000/svg"
   xmlns:sodipodi="http://sodipodi.sourceforge.net/DTD/sodipodi-0.dtd"
   xmlns:inkscape="http://www.inkscape.org/namespaces/inkscape"
   role="img"
   viewBox="0 0 25.020292 20.722807"
   version="1.1"
   id="svg6"
   sodipodi:docname="twitter.svg"
   width="25.020292"
   height="20.722807"
   inkscape:version="0.92.5 (2060ec1f9f, 2020-04-08)">
  <metadata
     id="metadata12">
    <rdf:RDF>
      <cc:Work
         rdf:about="">
        <dc:format>image/svg+xml</dc:format>
        <dc:type
           rdf:resource="http://purl.org/dc/dcmitype/StillImage" />
        <dc:title>Twitter icon</dc:title>
      </cc:Work>
    </rdf:RDF>
  </metadata>
  <defs
     id="defs10" />
  <sodipodi:namedview
     pagecolor="#ffffff"
     bordercolor="#666666"
     borderopacity="1"
     objecttolerance="10"
     gridtolerance="10"
     guidetolerance="10"
     inkscape:pageopacity="0"
     inkscape:pageshadow="2"
     inkscape:window-width="1920"
     inkscape:window-height="1080"
     id="namedview8"
     showgrid="false"
     fit-margin-top="0"
     fit-margin-left="0"
     fit-margin-right="0"
     fit-margin-bottom="0"
     inkscape:zoom="9.8333333"
     inkscape:cx="-7.1541131"
     inkscape:cy="10.253004"
     inkscape:window-x="0"
     inkscape:window-y="0"
     inkscape:window-maximized="0"
     inkscape:current-layer="svg6" />
  <title
     id="title2">Twitter icon</title>
  <path
     d="m 24.222616,3.0398021 a 10,10 0 0 1 -2.825,0.775 4.958,4.958 0 0 0 2.163,-2.723 c -0.951,0.555 -2.005,0.959 -3.127,1.184 a 4.92,4.92 0 0 0 -8.384,4.482 c -4.0900003,-0.193 -7.7130003,-2.158 -10.1400003,-5.126 a 4.822,4.822 0 0 0 -0.666,2.475 c 0,1.71 0.87,3.213 2.188,4.096 a 4.904,4.904 0 0 1 -2.228,-0.616 v 0.06 a 4.923,4.923 0 0 0 3.946,4.8269999 4.996,4.996 0 0 1 -2.212,0.085 4.936,4.936 0 0 0 4.604,3.417 9.867,9.867 0 0 1 -6.102,2.105 c -0.39,0 -0.77899999,-0.023 -1.16999999,-0.067 a 13.995,13.995 0 0 0 7.55699999,2.209 c 9.0530003,0 13.9980003,-7.496 13.9980003,-13.9849999 0,-0.21 0,-0.42 -0.015,-0.63 a 9.935,9.935 0 0 0 2.46,-2.548 z"
     id="path4"
     style="fill:#646464;fill-opacity:1;stroke:#c8c8c8;stroke-opacity:1"
     inkscape:connector-curvature="0" />
</svg>
